<?xml version="1.0" encoding="utf-8"?>
<!-- Generator: Adobe Illustrator 18.0.0, SVG Export Plug-In . SVG Version: 6.00 Build 0)  -->
<!DOCTYPE svg PUBLIC "-//W3C//DTD SVG 1.1//EN" "http://www.w3.org/Graphics/SVG/1.1/DTD/svg11.dtd">
<svg version="1.1" id="louisiana" xmlns="http://www.w3.org/2000/svg" xmlns:xlink="http://www.w3.org/1999/xlink" x="0px" y="0px"
	 viewBox="0 0 802.5 720.5" enable-background="new 0 0 802.5 720.5" xml:space="preserve">
<path fill="#CCCCCC" d="M704,572.8L704,572.8L704,572.8l-3.2-3.2h-3.2l-3.2,3.2v3.2v6.4h3.2v-3.2L704,572.8L704,572.8v3.2v3.2h3.2
	V576L704,572.8L704,572.8z M726.4,547.2l3.2-3.2v-3.2l0,0l-3.2,0V547.2L726.4,547.2l-3.2,3.2v3.2l0,0L726.4,547.2L726.4,547.2z
	 M630.4,659.2L630.4,659.2L630.4,659.2L630.4,659.2L630.4,659.2L630.4,659.2L630.4,659.2L630.4,659.2z M720,569.6l6.4,6.4l3.2-6.4
	l0,0l0,0l0,0h-3.2H720L720,569.6z M758.4,617.6l3.2-6.4l0,0l0,0l0,0L758.4,617.6L758.4,617.6L758.4,617.6z M3.2,131.2
	c0,16,0,35.2,0,51.2l0,0l0,0l0,0h3.2l0,0h3.2l0,0l3.2,6.4l0,0l0,0l0,0l9.6,9.6l0,0l3.2,3.2l3.2,3.2v3.2v3.2v3.2v3.2L32,224v3.2v6.4
	v3.2l0,0l0,0l0,0l0,0l0,0l0,0v3.2l0,0v6.4l0,0l0,0l0,0v3.2l0,0l0,0v3.2l0,0v3.2v3.2l3.2,3.2l0,0l0,0l0,0h3.2l0,0l0,0l0,0l0,0l0,0
	l0,0l0,0l0,0h-3.2l0,0l0,0l0,0l0,0l0,0l0,0l0,0l19.2,16l0,0l0,0l0,0l0,0v3.2l0,0l0,0v3.2l3.2,3.2h3.2l0,0l0,0l-3.2,3.2l0,0l0,0l0,0
	l0,0v3.2l0,0l0,0l3.2,3.2l6.4,12.8l0,0l0,0l0,0l0,0l0,0l0,0l0,0l0,0v3.2l0,0l0,0l0,0l0,0l0,0l0,0l0,0h3.2h3.2v3.2v6.4v3.2v3.2v3.2
	l3.2,6.4l3.2,3.2l0,0v3.2l0,0h-3.2l0,0l-3.2,3.2v3.2l3.2,3.2l0,0v3.2l0,0v3.2l0,12.8l0,0v3.2v3.2v3.2v3.2v3.2l0,0v3.2l-6.4,9.6v9.6
	v3.2l-6.4,3.2v3.2l-3.2,9.6v3.2h-3.2l-3.2-3.2v3.2v3.2l0,0l0,0l0,0v3.2l0,0v9.6l0,0v3.2v3.2l-3.2,3.2L48,464v3.2v6.4v3.2l3.2,3.2
	l3.2,6.4v3.2v3.2v3.2v3.2v3.2v3.2l0,0v3.2v3.2v3.2v3.2v0v3.2v3.2l-9.6,9.6l-3.2,6.4l0,0l0,0h3.2v3.2v12.8l-6.4,12.8h-3.2h-9.6v3.2
	v3.2v6.4l3.2,6.4L32,592h3.2l3.2-3.2l6.4-3.2l3.2-3.2l6.4-3.2h6.4h12.8h16l3.2-3.2H96h6.4h3.2l3.2-3.2h9.6h6.4h9.6l16,6.4l9.6,3.2
	l19.2,6.4l6.4,6.4l6.4,3.2l16,6.4l25.6,6.4h6.4l0,0l0,0l3.2,3.2l22.4,3.2h3.2h3.2l9.6-6.4h3.2h9.6h3.2l3.2-3.2h-3.2v-3.2h3.2h3.2
	l6.4-6.4h-3.2H304l-3.2,3.2l0,0v-3.2l-3.2-9.6h3.2l3.2-3.2l0,0l0,0l0,0h-3.2l-3.2,3.2l0,0l0,0v-3.2v-3.2v-3.2l3.2,3.2l0,0l0,0v-3.2
	l0,0h3.2v3.2v3.2h-3.2h3.2h3.2l3.2-3.2h3.2l12.8-6.4l0,0v-3.2l0,0l0,0h3.2h3.2l0,0h3.2l3.2-3.2h3.2h6.4h3.2v3.2v3.2v3.2l0,0V576l0,0
	h-3.2v3.2v3.2l0,0l0,0v3.2v3.2h3.2l6.4-3.2h3.2h12.8h3.2h3.2v3.2v6.4v3.2v3.2v3.2h3.2h3.2h3.2h3.2l0,0v3.2v3.2v3.2v3.2v3.2v3.2
	l-3.2,3.2h3.2h6.4l6.4-3.2l3.2-3.2h3.2l0,0v3.2v3.2l0,0h3.2h3.2h3.2l6.4,3.2l3.2,3.2v-3.2l3.2-3.2V624l0,0l0,0v-3.2v-3.2l3.2-3.2
	v-3.2V608h3.2h3.2l0,0v3.2v3.2v3.2h-3.2h-3.2l-3.2,3.2v3.2v3.2l3.2,3.2l0,0h3.2l0,0l0,0v3.2l0,0h3.2l6.4,3.2l9.6,6.4l3.2,3.2
	l-3.2,3.2l0,0l0,0l0,0l0,0l0,0l0,0h-3.2v-3.2l0,0l0,0l0,0v-3.2V640v-6.4h-3.2l-3.2-3.2l-3.2-3.2V624h-3.2l-3.2,3.2v3.2l-3.2,3.2
	l-3.2,3.2H432h-3.2v-3.2l3.2,6.4l6.4,6.4l9.6,3.2l16,3.2h3.2l3.2,3.2l0,0h3.2h3.2l0,0v-3.2l0,0h3.2h3.2v3.2H480l0,0l0,0v3.2l3.2-3.2
	h3.2l3.2,3.2l6.4,6.4l0,0l0,0l0,0l0,0l3.2-3.2v-3.2V656h3.2l3.2,3.2h3.2h3.2v3.2h-3.2h-3.2v3.2h3.2l6.4,3.2l0,0v-3.2h3.2h3.2l0,0
	l0,0l0,0l0,0h3.2l0,0l0,0l0,0h3.2h3.2l0,0v3.2v-3.2v-6.4l0,0l0,0V656v-3.2l0,0v3.2v3.2l0,0V656l-3.2-3.2v-3.2l3.2-3.2v-3.2H528l0,0
	V640l0,0l0,0l0,0v-3.2l0,0l0,0h3.2l0,0H528l0,0l6.4,3.2h3.2l0,0l0,0l3.2,3.2l3.2-3.2v-3.2v-3.2v-3.2l0,0l0,0l0,0l0,0l3.2,6.4v3.2
	v9.6l3.2-6.4V640v-3.2l0,0l0,0h3.2l0,0v3.2l6.4,6.4v3.2l0,0v-3.2v-3.2l0,0l0,0v3.2v3.2v3.2v3.2v3.2v3.2v3.2v3.2v3.2v3.2l3.2,3.2l0,0
	v3.2v3.2v3.2l0,0h3.2l3.2-3.2l6.4-6.4h3.2l3.2-3.2l3.2-3.2l3.2-3.2l0,0l3.2-6.4v-3.2h-6.4l-3.2-6.4v-6.4h3.2l-3.2-3.2l0,0h3.2
	l3.2,3.2h3.2l0,0h-3.2l-3.2-3.2V640v-3.2l0,0l0,0l0,0l0,0v-3.2l0,0l0,0l0,0l0,0v-3.2v-3.2l0,0h3.2l-3.2-3.2l22.4,6.4h-3.2h-3.2l0,0
	l0,0l-6.4-6.4l0,0l0,0l0,0l0,0l0,0l0,0l0,0h3.2l0,0l0,0h-3.2v-3.2l3.2-3.2v-3.2l3.2,3.2l3.2,6.4l3.2,3.2l0,0h-3.2l0,0h3.2h3.2h3.2
	l16,9.6h3.2l6.4-3.2l3.2,6.4h3.2v-3.2v-3.2l0,0l0,0h3.2l0,0v3.2l0,0l0,0l0,0l0,0l0,0l0,0l0,0l0,0l0,0l0,0l0,0l0,0l3.2-3.2h3.2v3.2
	l0,0l0,0l0,0v3.2l0,0l0,0l0,0l0,0v3.2v3.2v3.2v3.2h-3.2h-3.2l-6.4,3.2l22.4,3.2h3.2l3.2-3.2h3.2h3.2v3.2l-3.2,3.2l3.2,3.2v3.2v3.2
	h3.2h3.2l9.6,3.2V672h3.2h3.2h3.2h-3.2l0,0l9.6,16h3.2l0,0v3.2l0,0l3.2,3.2l0,0h3.2l3.2-3.2l3.2-3.2v-3.2v-3.2v-3.2v-3.2l0,0l0,0
	v3.2v3.2v3.2l0,0l0,0v-3.2v-3.2l0,0h3.2v3.2v3.2v3.2l-3.2,6.4l0,0h-3.2l0,0l0,0v3.2v3.2v3.2l-3.2,3.2v3.2l-3.2,3.2l0,0l0,0v6.4h3.2
	l3.2-3.2l6.4-9.6V704v-3.2v-3.2h3.2h3.2h3.2l0,0l0,0l0,0v-3.2v-3.2l0,0h3.2l0,0l3.2,6.4v3.2v3.2l3.2,6.4h3.2h3.2L752,704v-3.2
	l3.2-3.2l3.2-3.2v-3.2l0,0l0,0h3.2V688v-3.2v-3.2l0,0h3.2h3.2v3.2v3.2l3.2-3.2l3.2-9.6h-9.6l0,0V672l3.2-3.2l3.2-3.2h3.2l0,0l0,0
	l0,0l0,0v-3.2l0,0h3.2v-3.2l0,0l0,0l0,0h3.2V656h-3.2h-3.2h-3.2v3.2l0,0H768h-3.2h-3.2V656l-6.4-3.2l0,0h3.2l0,0l0,0l0,0h-3.2l0,0
	v-3.2v-3.2l0,0l0,0v-3.2l0,0l0,0V640l0,0l0,0v-3.2v-3.2l0,0l0,0l0,0l0,0l0,0l0,0v3.2L752,640h-3.2h-3.2l0,0v-3.2l0,0h-3.2l0,0l0,0
	h-3.2H736l0,0h-3.2l-3.2-3.2l0,0l0,0l0,0l0,0h3.2h3.2l0,0l0,0l0,0h-3.2l0,0l0,0l0,0l0,0l0,0l0,0l0,0l-3.2-3.2h-3.2l-32,9.6h-3.2H688
	v-3.2l0,0h3.2l0,0v-3.2H688l0,0v-3.2v-3.2l0,0h-3.2l-3.2-3.2h-3.2l0,0l0,0l0,0h-3.2H672l-3.2-3.2h-3.2l0,0v-3.2v-3.2v-3.2l-3.2-6.4
	v-3.2l0,0l0,0v-3.2l0,0h-3.2h6.4l12.8,3.2h3.2l-3.2-3.2l0,0l0,0l0,0h-3.2l0,0l0,0l-3.2-3.2l-3.2-3.2v-3.2h3.2l6.4,3.2h3.2h3.2h3.2
	h3.2l3.2,6.4h3.2h3.2l0,0l-6.4-3.2h-3.2l0,0l0,0l0,0l0,0L688,592h-3.2h-3.2h-3.2l-3.2-3.2v-3.2v-3.2l3.2-3.2l0,0h3.2l0,0h3.2l0,0
	l3.2-3.2l3.2-3.2l3.2-3.2v-3.2v-3.2h3.2h3.2h3.2l0,0l3.2,3.2l0,0h3.2l0,0v3.2l0,0l0,0v-3.2l0,0l0,0h3.2l0,0h-3.2v-3.2V560v-3.2l0,0
	l0,0l0,0h3.2l0,0l0,0l0,0l0,0l0,0l3.2-3.2l-3.2-3.2l0,0l0,0l0,0h-3.2l0,0l3.2-3.2l0,0V544l0,0h-3.2h-3.2l0,0l0,0l0,0l0,0l0,0l0,0
	l-3.2-3.2l0,0l3.2-3.2v3.2h3.2l3.2-3.2l-3.2-3.2h-3.2H704h-3.2h-3.2l0,0l0,0l0,0l0,0l0,0l0,0v-3.2h3.2h3.2h3.2h3.2l0,0l0,0h-3.2l0,0
	l-3.2,3.2l0,0l0,0l0,0l0,0l0,0l0,0l0,0l0,0l0,0l0,0h-3.2h-3.2l0,0l0,0l0,0l0,0v3.2l0,0l0,0l0,0l0,0l0,0h-3.2h-3.2l0,0l-6.4-3.2v3.2
	v6.4v3.2l-3.2,3.2l-3.2,3.2l-3.2,3.2H672h-3.2h-3.2l-3.2-3.2l0-3.2v-3.2l3.2-3.2l0,0l0,0l-6.4,3.2H656h-3.2h-3.2V544l-3.2-3.2v-3.2
	v-3.2v-3.2l3.2-3.2l3.2-3.2h3.2l3.2,3.2l3.2,3.2h3.2l0,0V528v-3.2l0,0h3.2v-3.2v-3.2l3.2-3.2l3.2-3.2H672l-3.2-3.2h-3.2h-3.2l0,0
	l0,0l0,0l0,0l0,0l0,0l0,0l0,0l0,0l0,0h-3.2l0,0H656l0,0l0,0l-3.2,3.2l0,0l0,0l0,0l0,0v-3.2l3.2-3.2v-3.2v-3.2l0,0v3.2v3.2v3.2
	l-3.2,3.2l0,0l0,0l0,0h-3.2h-3.2h-3.2v-3.2v-3.2l0,0H640l-3.2,6.4l-6.4,6.4l-9.6,6.4h-3.2h-3.2h-9.6l-6.4,6.4h-3.2l-9.6-3.2
	l-6.4-3.2h-9.6l-6.4-3.2l-6.4-3.2l-3.2-6.4v-9.6l3.2-6.4l12.8-9.6l3.2-6.4l6.4-9.6l3.2-3.2l3.2-3.2h6.4h6.4l6.4,3.2l6.4,3.2l6.4,6.4
	l0,0v3.2l3.2,6.4v3.2h6.4h3.2h3.2h3.2h3.2l6.4,3.2h3.2l6.4-3.2h3.2v3.2v3.2l0,0l0,0l0,0l0,0h3.2l0,0h3.2h3.2h6.4h3.2h3.2h3.2
	l3.2,3.2h-3.2l0,0l0,0l3.2,3.2h3.2l3.2-3.2l3.2-3.2l0,0h-3.2h-3.2v3.2L688,496l-3.2-9.6l-3.2-6.4v-6.4v-3.2l-3.2-6.4v-3.2l0,0v-3.2
	l0,0l0,0l-3.2-3.2l-12.8-6.4l-3.2-6.4l-3.2-3.2h-3.2l-3.2-3.2l-3.2-9.6l3.2-3.2v-3.2l-3.2-3.2v-3.2v-3.2v-3.2l3.2-6.4v-3.2v-3.2
	l3.2-3.2l3.2-9.6l3.2-6.4l3.2-6.4v-6.4v-3.2c-16,0-32,0-48,0H368l12.8-9.6v-3.2l-6.4-6.4l-3.2-6.4v-3.2l3.2-3.2v-3.2l0,0V320v-3.2
	l0,0h-3.2l-3.2-3.2v-3.2v-3.2h3.2h3.2h6.4h3.2l3.2-3.2v-3.2l3.2-12.8v-3.2l0,0v-3.2l0,0l-3.2-3.2v-3.2l0,0v-6.4l3.2-6.4l9.6-6.4l0,0
	v-3.2v-3.2l6.4-12.8v-3.2v-3.2l3.2-9.6l3.2-6.4v-3.2l3.2-3.2l3.2-3.2h6.4h3.2l3.2-3.2l6.4-9.6l0,0v-3.2l0,0l0,0h3.2l6.4-3.2l3.2-6.4
	v-6.4l-3.2-6.4l0,0v-3.2V160l0,0h9.6l6.4-9.6l3.2-12.8l6.4-6.4l0,0l0,0V128v-3.2h-3.2v-6.4l0,0l0,0V112l-3.2-3.2l-3.2-3.2l-6.4-3.2
	l-3.2-3.2V96v-6.4v-3.2v-3.2V80v-3.2l0,0l-3.2-3.2l0,0l-3.2-3.2v-3.2V64v-3.2v-3.2h3.2h3.2h3.2l0-3.2v-3.2l-3.2-3.2H448h-3.2v-3.2
	v-6.4l3.2-9.6v-3.2h3.2l3.2-3.2l3.2-3.2V16l-3.2-3.2l-3.2-3.2H448h-3.2h-3.2h-3.2V6.4V0h-3.2H32C22.4,0,9.6,0,0,0 M720,528L720,528
	h3.2l0,0l0,0l0,0l0,0l0,0l0,0l0,0l0,0l0,0l0,0l0,0l0,0l0,0l0,0l0,0l3.2,3.2l0,0V528h3.2l0,0v-3.2v-3.2l0,0l0,0l0,0l0,0l0,0l0,0v-3.2
	v-3.2h-3.2h-3.2l3.2-3.2l3.2-3.2h3.2h3.2l0,0h-3.2l-3.2,3.2l-3.2,3.2l-3.2,3.2H720h-3.2v3.2l0,0h9.6l0,0l0,0h-3.2H720V528L720,528
	L720,528z M707.2,512L707.2,512L707.2,512L707.2,512L707.2,512L707.2,512z M624,662.4L624,662.4l-6.4,3.2l-3.2,3.2v3.2l0,0l3.2-3.2
	l6.4-3.2V662.4L624,662.4L624,662.4L624,662.4z M736,544h-3.2h-3.2l-3.2,6.4l0,0l0,0h3.2h3.2h3.2L736,544L736,544L736,544L736,544z
	 M739.2,627.2L739.2,627.2h6.4h3.2V624l0,0l0,0l0,0l0,0v3.2h-3.2H739.2z M355.2,608H352h-3.2l0,0l-6.4-3.2l-3.2-3.2H336l-6.4-3.2
	h-3.2l0,0v3.2l0,0h-3.2H320h-3.2l-6.4,3.2v3.2l3.2,3.2l16,6.4l0,0l0,0l9.6,6.4h6.4h3.2l0,0l0,0v-3.2v-3.2l3.2-3.2l6.4-3.2L355.2,608
	L355.2,608L355.2,608z M774.4,598.4L774.4,598.4L774.4,598.4L774.4,598.4L774.4,598.4L774.4,598.4z M476.8,697.6L476.8,697.6
	L476.8,697.6L476.8,697.6z M476.8,697.6l3.2,3.2h6.4h-3.2L476.8,697.6z M800,537.6l-3.2-3.2v-3.2V528l-6.4-3.2l3.2,3.2v3.2
	L800,537.6L800,537.6L800,537.6l-3.2,3.2l3.2,3.2l0,0v3.2v9.6v3.2l-3.2,9.6l0,0l0,0l0,0l0,0l3.2-6.4V560v-16V537.6z M784,592
	l6.4-6.4l3.2-3.2L784,592L784,592z M611.2,627.2L611.2,627.2L611.2,627.2L611.2,627.2L611.2,627.2h3.2l0,0l0,0l0,0l0,0h3.2l0,0l0,0
	l0,0l0,0l0,0l0,0l0,0l0,0l0,0l0,0l0,0l0,0V624l0,0l0,0l0,0l0,0l0,0h-3.2l0,0l0,0l0,0h-3.2H608l0,0l0,0l0,0v3.2l3.2,3.2l0,0V627.2
	L611.2,627.2L611.2,627.2L611.2,627.2L611.2,627.2z M572.8,694.4L572.8,694.4L572.8,694.4l-6.4,6.4L572.8,694.4L572.8,694.4
	L572.8,694.4L572.8,694.4z M521.6,697.6L521.6,697.6h-3.2l0,0l0,0h-3.2l0,0l0,0l0,0H512l0,0h-3.2l0,0h3.2H521.6L521.6,697.6
	L521.6,697.6L521.6,697.6L521.6,697.6L521.6,697.6z M556.8,700.8L556.8,700.8l-6.4-3.2l-9.6-3.2l0,0l6.4,3.2L556.8,700.8
	L556.8,700.8L556.8,700.8L556.8,700.8z M550.4,668.8L550.4,668.8L550.4,668.8l3.2-3.2L550.4,668.8L550.4,668.8L550.4,668.8
	L550.4,668.8L550.4,668.8z"/>
</svg>
