<?xml version="1.0" encoding="utf-8"?>
<svg  version="1.1" id="louisiana" xmlns="http://www.w3.org/2000/svg" xmlns:xlink="http://www.w3.org/1999/xlink" x="0px" y="0px"
	 viewBox="0 0 25 25" enable-background="new 0 0 25 25" xml:space="preserve">
<path fill="#CCC" d="M22.3,19.2L22.3,19.2L22.3,19.2l-0.1-0.1l-0.1,0l-0.1,0.1l0,0.1l0,0.2l0.1,0l0-0.1L22.3,19.2L22.3,19.2l0,0.1l0,0.1l0.1,0
	l0-0.1L22.3,19.2L22.3,19.2z M23,18.4l0.1-0.1l0-0.1l0,0L23,18.2L23,18.4L23,18.4l-0.1,0.1l0,0.1l0,0L23,18.4L23,18.4z M20,21.9
	L20,21.9L20,21.9L20,21.9L20,21.9L20,21.9L20,21.9L20,21.9z M22.8,19.1l0.2,0.2l0.1-0.2l0,0l0,0l0,0l-0.1,0L22.8,19.1L22.8,19.1z
	 M24,20.6l0.1-0.2l0,0l0,0l0,0L24,20.6L24,20.6L24,20.6z M0.4,5.4c0,0.5,0,1.1,0,1.6l0,0l0,0l0,0l0.1,0l0,0l0.1,0l0,0l0.1,0.2l0,0
	l0,0l0,0L1,7.5l0,0l0.1,0.1l0.1,0.1l0,0.1l0,0.1l0,0.1l0,0.1l0.1,0.2l0,0.1l0,0.2l0,0.1l0,0l0,0l0,0l0,0l0,0l0,0l0,0.1l0,0l0,0.2
	l0,0l0,0l0,0l0,0.1l0,0l0,0l0,0.1l0,0l0,0.1l0,0.1l0.1,0.1l0,0l0,0l0,0l0.1,0l0,0l0,0l0,0l0,0l0,0l0,0l0,0h0l-0.1,0l0,0l0,0l0,0l0,0
	l0,0l0,0l0,0L2,10l0,0l0,0l0,0l0,0l0,0.1l0,0l0,0l0,0.1l0.1,0.1l0.1,0l0,0l0,0l-0.1,0.1l0,0l0,0l0,0l0,0l0,0.1l0,0l0,0l0.1,0.1
	L2.4,11l0,0l0,0l0,0l0,0l0,0l0,0l0,0l0,0l0,0.1l0,0l0,0l0,0l0,0l0,0l0,0h0l0.1,0l0.1,0l0,0.1l0,0.2l0,0.1l0,0.1l0,0.1l0.1,0.2
	l0.1,0.1l0,0l0,0.1l0,0l-0.1,0l0,0l-0.1,0.1l0,0.1l0.1,0.1l0,0l0,0.1l0,0l0,0.1L2.7,13l0,0l0,0.1l0,0.1l0,0.1l0,0.1l0,0.1l0,0l0,0.1
	l-0.2,0.3l0,0.3l0,0.1l-0.2,0.1l0,0.1l-0.1,0.3l0,0.1l-0.1,0L2,14.8l0,0.1l0,0.1l0,0l0,0l0,0l0,0.1l0,0L2,15.4l0,0l0,0.1l0,0.1
	l-0.1,0.1l-0.1,0.1l0,0.1l0,0.2l0,0.1l0.1,0.1L2,16.5l0,0.1l0,0.1l0,0.1l0,0.1l0,0.1l0,0.1l0,0l0,0.1l0,0.1l0,0.1l0,0.1L2,17.5
	l0,0.1l0,0.1l-0.3,0.3l-0.1,0.2v0l0,0l0.1,0l0,0.1l0,0.4l-0.2,0.4l-0.1,0l-0.3,0l0,0.1l0,0.1l0,0.2l0.1,0.2l0.1,0.1l0.1,0l0.1-0.1
	l0.2-0.1l0.1-0.1l0.2-0.1l0.2,0l0.4,0l0.5,0l0.1-0.1l0.1,0l0.2,0l0.1,0l0.1-0.1l0.3,0l0.2,0l0.3,0L5,19.4l0.3,0.1l0.6,0.2l0.2,0.2
	L6.3,20l0.5,0.2l0.8,0.2l0.2,0l0,0l0,0l0.1,0.1l0.7,0.1l0.1,0l0.1,0l0.3-0.2l0.1,0l0.3,0l0.1,0l0.1-0.1l-0.1,0l0-0.1l0.1,0l0.1,0
	L10,20l-0.1,0l-0.1,0l-0.1,0.1h0l0-0.1l-0.1-0.3l0.1,0l0.1-0.1l0,0l0,0l0,0l-0.1,0l-0.1,0.1l0,0l0,0l0-0.1l0-0.1l0-0.1l0.1,0.1l0,0
	l0,0l0-0.1l0,0l0.1,0l0,0.1l0,0.1l-0.1,0l0.1,0l0.1,0l0.1-0.1l0.1,0l0.4-0.2l0,0l0-0.1l0,0l0,0l0.1,0l0.1,0l0,0l0.1,0l0.1-0.1l0.1,0
	l0.2,0l0.1,0l0,0.1l0,0.1l0,0.1l0,0l0-0.1l0,0l-0.1,0l0,0.1l0,0.1l0,0l0,0l0,0.1l0,0.1l0.1,0l0.2-0.1l0.1,0l0.4,0l0.1,0l0.1,0l0,0.1
	l0,0.2l0,0.1l0,0.1l0,0.1l0.1,0l0.1,0l0.1,0l0.1,0l0,0l0,0.1l0,0.1l0,0.1l0,0.1l0,0.1l0,0.1l-0.1,0.1l0.1,0l0.2,0l0.2-0.1l0.1-0.1
	l0.1,0l0,0l0,0.1l0,0.1l0,0l0.1,0l0.1,0l0.1,0l0.2,0.1l0.1,0.1l0-0.1l0.1-0.1l0-0.1l0,0l0,0l0-0.1l0-0.1l0.1-0.1l0-0.1l0-0.1l0.1,0
	l0.1,0l0,0l0,0.1l0,0.1l0,0.1l-0.1,0l-0.1,0l-0.1,0.1l0,0.1l0,0.1l0.1,0.1l0,0l0.1,0l0,0l0,0l0,0.1l0,0l0.1,0l0.2,0.1l0.3,0.2
	l0.1,0.1l-0.1,0.1v0l0,0l0,0l0,0l0,0l0,0l-0.1,0l0-0.1l0,0l0,0l0,0l0-0.1l0-0.1l0-0.2l-0.1,0l-0.1-0.1l-0.1-0.1l0-0.1l-0.1,0
	l-0.1,0.1l0,0.1l-0.1,0.1l-0.1,0.1l-0.1,0l-0.1,0l0-0.1l0.1,0.2l0.2,0.2l0.3,0.1l0.5,0.1l0.1,0l0.1,0.1l0,0l0.1,0l0.1,0l0,0l0-0.1
	l0,0l0.1,0l0.1,0l0,0.1l-0.1,0l0,0l0,0l0,0.1l0.1-0.1l0.1,0l0.1,0.1l0.2,0.2l0,0l0,0l0,0l0,0l0.1-0.1l0-0.1l0-0.1l0.1,0l0.1,0.1
	l0.1,0l0.1,0l0,0.1l-0.1,0l-0.1,0l0,0.1l0.1,0l0.2,0.1l0,0l0-0.1l0.1,0l0.1,0l0,0l0,0l0,0l0,0l0.1,0l0,0l0,0l0,0l0.1,0l0.1,0l0,0
	l0,0.1v-0.1l0-0.2l0,0l0,0l0-0.1l0-0.1l0,0l0,0.1l0,0.1l0,0l0-0.1l-0.1-0.1l0-0.1l0.1-0.1l0-0.1l-0.1,0l0,0l0-0.1l0,0l0,0l0,0l0-0.1
	l0,0l0,0l0.1,0v0l-0.1,0l0,0l0.2,0.1l0.1,0l0,0l0,0l0.1,0.1l0.1-0.1l0-0.1l0-0.1l0-0.1l0,0l0,0l0,0l0,0l0.1,0.2l0,0.1v0.3l0.1-0.2
	l0-0.1l0-0.1l0,0l0,0l0.1,0v0l0,0.1l0.2,0.2l0,0.1l0,0l0-0.1l0-0.1l0,0l0,0l0,0.1l0,0.1l0,0.1l0,0.1l0,0.1l0,0.1l0,0.1l0,0.1l0,0.1
	l0,0.1l0.1,0.1l0,0l0,0.1l0,0.1l0,0.1l0,0l0.1,0l0.1-0.1l0.2-0.2l0.1,0l0.1-0.1l0.1-0.1l0.1-0.1l0,0l0.1-0.2l0-0.1l-0.2,0l-0.1-0.2
	l0-0.2l0.1,0l-0.1-0.1l0,0l0.1,0l0.1,0.1l0.1,0v0l-0.1,0l-0.1-0.1l0-0.1l0-0.1l0,0l0,0l0,0l0,0l0-0.1l0,0l0,0l0,0l0,0l0-0.1l0-0.1
	l0,0l0.1,0l-0.1-0.1L19.3,21l-0.1,0l-0.1,0l0,0l0,0l-0.2-0.2l0,0l0,0l0,0l0,0l0,0h0l0,0l0.1,0v0l0,0l-0.1,0l0-0.1l0.1-0.1l0-0.1
	l0.1,0.1l0.1,0.2l0.1,0.1l0,0l-0.1,0l0,0l0.1,0l0.1,0l0.1,0l0.5,0.3l0.1,0l0.2-0.1l0.1,0.2l0.1,0l0-0.1l0-0.1l0,0l0,0l0.1,0l0,0
	l0,0.1l0,0l0,0l0,0l0,0v0l0,0l0,0l0,0l0,0l0,0l0,0l0,0l0.1-0.1l0.1,0l0,0.1l0,0l0,0l0,0l0,0.1l0,0l0,0l0,0l0,0l0,0.1l0,0.1l0,0.1
	l0,0.1l-0.1,0l-0.1,0l-0.2,0.1l0.7,0.1l0.1,0l0.1-0.1l0.1,0l0.1,0l0,0.1l-0.1,0.1l0.1,0.1l0,0.1l0,0.1l0.1,0l0.1,0l0.3,0.1l0-0.1
	l0.1,0l0.1,0l0.1,0l-0.1,0l0,0l0.3,0.5l0.1,0l0,0l0,0.1l0,0l0.1,0.1l0,0l0.1,0l0.1-0.1l0.1-0.1l0-0.1l0-0.1l0-0.1l0-0.1l0,0l0,0
	l0,0.1l0,0.1l0,0.1l0,0l0,0l0-0.1l0-0.1l0,0l0.1,0l0,0.1l0,0.1l0,0.1l-0.1,0.2l0,0l-0.1,0l0,0l0,0l0,0.1v0.1l0,0.1l-0.1,0.1l0,0.1
	l-0.1,0.1l0,0l0,0l0,0.2l0.1,0l0.1-0.1l0.2-0.3l0-0.1l0-0.1l0-0.1l0.1,0l0.1,0l0.1,0l0,0l0,0l0,0l0-0.1l0-0.1h0l0.1,0l0,0l0.1,0.2
	l0,0.1l0,0.1l0.1,0.2l0.1,0l0.1,0l-0.1-0.2l0-0.1l0.1-0.1l0.1-0.1l0-0.1l0,0l0,0l0.1,0l0-0.1l0-0.1l0-0.1l0,0l0.1,0l0.1,0l0,0.1
	l0,0.1l0.1-0.1l0.1-0.3l-0.3,0l0,0l0-0.1l0.1-0.1l0.1-0.1l0.1,0l0,0l0,0v0h0l0-0.1l0,0l0.1,0l0-0.1l0,0l0,0v0h0.1l0-0.1l-0.1,0
	l-0.1,0l-0.1,0l0,0.1l0,0l-0.1,0l-0.1,0l-0.1,0l0-0.1l-0.2-0.1v0l0.1,0l0,0l0,0l0,0l-0.1,0l0,0l0-0.1l0-0.1l0,0l0,0l0-0.1l0,0l0,0
	l0-0.1l0,0l0,0l0-0.1l0-0.1l0,0l0,0l0,0l0,0l0,0l0,0l0,0.1l-0.1,0.1l-0.1,0l-0.1,0l0,0l0-0.1l0,0l-0.1,0l0,0l0,0l-0.1,0l-0.1,0l0,0
	l-0.1,0l-0.1-0.1l0,0l0,0l0,0l0,0l0.1,0h0.1l0,0l0,0l0,0c0,0-0.1,0-0.1,0l0,0l0,0h0l0,0l0,0l0,0l0,0l-0.1-0.1h-0.1L22,21.3l-0.1,0
	l-0.1,0l0-0.1l0,0l0.1,0l0,0l0-0.1l-0.1,0l0,0l0-0.1l0-0.1v0l-0.1,0l-0.1-0.1l-0.1,0l0,0l0,0l0,0l-0.1,0l-0.1,0l-0.1-0.1l-0.1,0l0,0
	l0-0.1l0-0.1l0-0.1L21,20.2l0-0.1l0,0l0,0l0-0.1l0,0l-0.1,0l0.2,0l0.4,0.1l0.1,0l-0.1-0.1l0,0l0,0l0,0l-0.1,0l0,0l0,0l-0.1-0.1
	l-0.1-0.1l0-0.1l0.1,0l0.2,0.1l0.1,0l0.1,0l0.1,0l0.1,0L22,20l0.1,0l0.1,0v0L22,19.9l-0.1,0l0,0l0,0l0,0l0,0l-0.1-0.1l-0.1,0l-0.1,0
	l-0.1,0l-0.1-0.1l0-0.1l0-0.1l0.1-0.1l0,0l0.1,0l0,0l0.1,0l0,0l0.1-0.1l0.1-0.1l0.1-0.1l0-0.1l0-0.1l0.1,0l0.1,0l0.1,0l0,0l0.1,0.1
	l0,0l0.1,0l0,0l0,0.1l0,0l0,0l0-0.1l0,0h0l0.1,0l0,0l-0.1,0l0-0.1l0-0.1l0-0.1l0,0l0,0l0,0l0.1,0l0,0l0,0l0,0l0,0l0,0l0.1-0.1
	l-0.1-0.1l0,0l0,0l0,0l-0.1,0v0l0.1-0.1l0,0l0-0.1l0,0l-0.1,0l-0.1,0l0,0h0l0,0l0,0l0,0l0,0l-0.1-0.1v0l0.1-0.1l0,0.1l0.1,0l0.1-0.1
	l-0.1-0.1l-0.1,0l-0.1,0l-0.1,0l-0.1,0l0,0l0,0l0,0v0l0,0l0,0l0-0.1l0.1,0l0.1,0l0.1,0l0.1,0l0,0l0,0l-0.1,0l0,0l-0.1,0.1l0,0h0l0,0
	l0,0h0l0,0v0h0v0l0,0l-0.1,0l-0.1,0l0,0l0,0l0,0l0,0l0,0.1l0,0l0,0l0,0l0,0l0,0l-0.1,0l-0.1,0l0,0L21.7,18l0,0.1v0.2l0,0.1l-0.1,0.1
	l-0.1,0.1l-0.1,0.1l-0.1,0l-0.1,0l-0.1,0l-0.1-0.1L21,18.5l0-0.1l0.1-0.1l0,0l0,0l-0.2,0.1l-0.1,0l-0.1,0l-0.1,0l0-0.1l-0.1-0.1
	l0-0.1l0-0.1l0-0.1l0.1-0.1l0.1-0.1l0.1,0l0.1,0.1l0.1,0.1l0.1,0l0,0l0-0.1l0-0.1l0,0l0.1,0l0-0.1l0-0.1l0.1-0.1l0.1-0.1l-0.1,0
	l-0.1-0.1l-0.1,0l-0.1,0l0,0l0,0l0,0h0l0,0l0,0l0,0l0,0l0,0l0,0l-0.1,0l0,0l-0.1,0l0,0l0,0l-0.1,0.1l0,0l0,0l0,0l0,0l0-0.1l0.1-0.1
	l0-0.1l0-0.1h0l0,0.1l0,0.1l0,0.1l-0.1,0.1l0,0l0,0l0,0l-0.1,0l-0.1,0l-0.1,0l0-0.1l0-0.1l0,0l-0.1,0l-0.1,0.2L20,17.5l-0.3,0.2
	l-0.1,0l-0.1,0l-0.3,0L19,17.9l-0.1,0l-0.3-0.1l-0.2-0.1l-0.3,0l-0.2-0.1l-0.2-0.1l-0.1-0.2l0-0.3l0.1-0.2l0.4-0.3l0.1-0.2l0.2-0.3
	l0.1-0.1l0.1-0.1l0.2,0l0.2,0l0.2,0.1l0.2,0.1l0.2,0.2l0,0l0,0.1l0.1,0.2l0,0.1l0.2,0l0.1,0l0.1,0l0.1,0l0.1,0l0.2,0.1l0.1,0
	l0.2-0.1l0.1,0l0,0.1l0,0.1l0,0l0,0l0,0l0,0l0.1,0l0,0l0.1,0l0.1,0l0.2,0l0.1,0l0.1,0l0.1,0l0.1,0.1l-0.1,0l0,0h0l0.1,0.1l0.1,0
	l0.1-0.1l0.1-0.1l0,0l-0.1,0l-0.1,0l0,0.1l-0.1-0.1l-0.1-0.3l-0.1-0.2l0-0.2l0-0.1l-0.1-0.2l0-0.1l0,0l0-0.1l0,0l0,0l-0.1-0.1
	L21,15.3l-0.1-0.2l-0.1-0.1L20.7,15l-0.1-0.1l-0.1-0.3l0.1-0.1l0-0.1l-0.1-0.1l0-0.1l0-0.1l0-0.1l0.1-0.2l0-0.1l0-0.1l0.1-0.1
	l0.1-0.3l0.1-0.2l0.1-0.2l0-0.2l0-0.1c-0.5,0-1,0-1.5,0h-7.7l0.4-0.3l0-0.1L12,11.9l-0.1-0.2l0-0.1l0.1-0.1l0-0.1l0,0l0-0.1l0-0.1
	l0,0l-0.1,0l-0.1-0.1l0-0.1l0-0.1l0.1,0l0.1,0l0.2,0l0.1,0l0.1-0.1l0-0.1l0.1-0.4l0-0.1l0,0l0-0.1l0,0l-0.1-0.1l0-0.1l0,0l0-0.2
	l0.1-0.2l0.3-0.2l0,0l0-0.1l0-0.1L13,8.7l0-0.1l0-0.1l0.1-0.3L13.2,8l0-0.1l0.1-0.1l0.1-0.1l0.2,0l0.1,0l0.1-0.1L14,7.3l0,0l0-0.1
	l0,0l0,0l0.1,0l0.2-0.1l0.1-0.2l0-0.2l-0.1-0.2l0,0l0-0.1l0-0.1l0,0l0.3,0l0.2-0.3l0.1-0.4l0.2-0.2v0l0,0l0-0.1l0-0.1l-0.1,0L15,5
	L15,5l0,0l0-0.2l-0.1-0.1l-0.1-0.1l-0.2-0.1l-0.1-0.1l0-0.1l0-0.2l0-0.1l0-0.1l0-0.1l0-0.1l0,0l-0.1-0.1l0,0l-0.1-0.1l0-0.1l0-0.1
	l0-0.1l0-0.1l0.1,0l0.1,0l0.1,0L14.6,3l0-0.1l-0.1-0.1l-0.2,0l-0.1,0l0-0.1l0-0.2l0.1-0.3l0-0.1l0.1,0L14.5,2l0.1-0.1l0-0.1
	l-0.1-0.1l-0.1-0.1l-0.1,0l-0.1,0l-0.1,0l-0.1,0l0-0.1l0-0.2l-0.1,0l-12.6,0c-0.3,0-0.7,0-1,0 M22.8,17.8L22.8,17.8l0.1,0l0,0l0,0
	l0,0l0,0l0,0l0,0l0,0l0,0l0,0l0,0l0,0l0,0l0,0l0,0l0,0l0.1,0.1l0,0l0-0.1l0.1,0l0,0l0-0.1l0-0.1h0l0,0l0,0l0,0l0,0l0,0l0-0.1l0-0.1
	l-0.1,0l-0.1,0l0.1-0.1l0.1-0.1l0.1,0l0.1,0v0l-0.1,0l-0.1,0.1l-0.1,0.1l-0.1,0.1l-0.1,0l-0.1,0l0,0.1l0,0H23l0,0l0,0l-0.1,0l-0.1,0
	L22.8,17.8L22.8,17.8L22.8,17.8z M22.4,17.3L22.4,17.3L22.4,17.3L22.4,17.3L22.4,17.3L22.4,17.3z M19.8,22L19.8,22l-0.2,0.1
	l-0.1,0.1l0,0.1h0l0.1-0.1l0.2-0.1L19.8,22L19.8,22L19.8,22L19.8,22z M23.3,18.3l-0.1,0l-0.1,0L23,18.5l0,0l0,0l0.1,0l0.1,0h0.1
	L23.3,18.3L23.3,18.3L23.3,18.3L23.3,18.3z M23.4,20.9L23.4,20.9l0.2,0l0.1,0l0-0.1l0,0l0,0l0,0l0,0l0,0.1l-0.1,0L23.4,20.9z
	 M11.4,20.3l-0.1,0l-0.1,0l0,0L11,20.2l-0.1-0.1l-0.1,0L10.6,20l-0.1,0l0,0l0,0.1l0,0l-0.1,0l-0.1,0l-0.1,0L10,20.2l0,0.1l0.1,0.1
	l0.5,0.2l0,0l0,0l0.3,0.2l0.2,0l0.1,0l0,0l0,0l0-0.1l0-0.1l0.1-0.1l0.2-0.1L11.4,20.3L11.4,20.3L11.4,20.3z M24.5,20L24.5,20
	L24.5,20L24.5,20L24.5,20L24.5,20z M15.2,23.1L15.2,23.1L15.2,23.1L15.2,23.1z M15.2,23.1l0.1,0.1h0.2l-0.1,0L15.2,23.1z M25.3,18.1
	L25.2,18l0-0.1l0-0.1L25,17.7l0.1,0.1l0,0.1L25.3,18.1L25.3,18.1L25.3,18.1l-0.1,0.1l0.1,0.1l0,0l0,0.1l0,0.3l0,0.1l-0.1,0.3l0,0
	l0,0l0,0l0,0l0.1-0.2l0-0.1l0-0.5L25.3,18.1z M24.8,19.8l0.2-0.2l0.1-0.1L24.8,19.8L24.8,19.8z M19.4,20.9L19.4,20.9L19.4,20.9
	L19.4,20.9L19.4,20.9l0.1,0l0,0l0,0l0,0l0,0l0.1,0l0,0l0,0l0,0l0,0l0,0l0,0l0,0l0,0l0,0l0,0l0,0l0,0l0-0.1l0,0l0,0l0,0l0,0l0,0
	l-0.1,0l0,0l0,0l0,0l-0.1,0l-0.1,0l0,0l0,0l0,0l0,0.1l0.1,0.1l0,0L19.4,20.9L19.4,20.9L19.4,20.9L19.4,20.9L19.4,20.9z M18.2,23
	L18.2,23L18.2,23L18,23.2L18.2,23L18.2,23L18.2,23L18.2,23z M16.6,23.1L16.6,23.1l-0.1,0l0,0l0,0l-0.1,0l0,0l0,0h0l-0.1,0l0,0
	l-0.1,0l0,0h0.1L16.6,23.1L16.6,23.1L16.6,23.1L16.6,23.1L16.6,23.1L16.6,23.1z M17.7,23.2L17.7,23.2l-0.2-0.1L17.2,23l0,0l0.2,0.1
	L17.7,23.2L17.7,23.2L17.7,23.2L17.7,23.2z M17.5,22.2L17.5,22.2L17.5,22.2l0.1-0.1L17.5,22.2L17.5,22.2L17.5,22.2L17.5,22.2
	L17.5,22.2z"/>
</svg>
